<?xml version="1.0" encoding="UTF-8"?>
<svg id="_Слой_1" data-name="Слой 1" xmlns="http://www.w3.org/2000/svg" viewBox="0 0 1600 2300">
  <defs>
    <style>
      .cls-1 {
        font-size: 100.8px;
      }

      .cls-1, .cls-2 {
        font-family: TimesNewRomanPSMT, 'Times New Roman';
      }

      .cls-3, .cls-4 {
        fill: none;
        stroke: #000;
        stroke-miterlimit: 10;
        stroke-width: 4px;
      }

      .cls-2 {
        font-size: 67.2px;
      }

      .cls-5 {
        letter-spacing: 0em;
      }

      .cls-6 {
        letter-spacing: -.04em;
      }

      .cls-7 {
        letter-spacing: -.04em;
      }

      .cls-4 {
        stroke-dasharray: 0 0 2.98 2.98;
      }

      .cls-8 {
        letter-spacing: -.05em;
      }

      .cls-9 {
        letter-spacing: .01em;
      }

      .cls-10 {
        letter-spacing: -.03em;
      }

      .cls-11 {
        letter-spacing: -.01em;
      }

      .cls-12 {
        letter-spacing: 0em;
      }
    </style>
  </defs>
  <path d="m1600,0v2300H0V0h1600m10-10H-10v2320h1620V-10h0Z"/>
  <g>
    <rect class="cls-3" x="100" y="100" width="560" height="280" rx="46.91" ry="46.91"/>
    <text class="cls-1" transform="translate(224.74 275.03)"><tspan x="0" y="0">Н</tspan><tspan class="cls-6" x="72.79" y="0">а</tspan><tspan x="113.5" y="0">ч</tspan><tspan class="cls-5" x="164.19" y="0">а</tspan><tspan x="209.82" y="0">ло</tspan></text>
  </g>
  <g>
    <rect class="cls-3" x="100" y="660" width="560" height="280"/>
    <text class="cls-1" transform="translate(212.98 774.55)"><tspan x="0" y="0">Импо</tspan><tspan class="cls-11" x="240.93" y="0">р</tspan><tspan x="290" y="0">т </tspan><tspan x="-11.74" y="120.96">м</tspan><tspan class="cls-10" x="52.05" y="120.96">о</tspan><tspan x="99.54" y="120.96">д</tspan><tspan class="cls-7" x="150.83" y="120.96">у</tspan><tspan x="196.8" y="120.96">лей</tspan></text>
  </g>
  <line class="cls-3" x1="380" y1="380" x2="380" y2="660"/>
  <g>
    <path class="cls-3" d="m1024,660h-84v280h84"/>
    <text class="cls-1" transform="translate(968 835.03)"><tspan x="0" y="0">Interface</tspan></text>
  </g>
  <g>
    <line class="cls-3" x1="660" y1="800" x2="661.5" y2="800"/>
    <line class="cls-4" x1="664.48" y1="800" x2="937.01" y2="800"/>
    <line class="cls-3" x1="938.5" y1="800" x2="940" y2="800"/>
  </g>
  <g>
    <rect class="cls-3" x="100" y="1220" width="560" height="280"/>
    <text class="cls-2" transform="translate(154.25 1343.03)"><tspan x="0" y="0">Иници</tspan><tspan class="cls-12" x="192.38" y="0">а</tspan><tspan x="222.8" y="0">лизация </tspan><tspan x="58.49" y="80.64">интерфей</tspan><tspan class="cls-9" x="332.54" y="80.64">с</tspan><tspan x="363.19" y="80.64">а</tspan></text>
  </g>
  <line class="cls-3" x1="380" y1="940" x2="380" y2="1220"/>
  <g>
    <rect class="cls-3" x="128" y="1780" width="560" height="280" rx="46.91" ry="46.91"/>
    <text class="cls-1" transform="translate(275.38 1955.03)"><tspan class="cls-8" x="0" y="0">К</tspan><tspan x="62.21" y="0">онец</tspan></text>
  </g>
  <line class="cls-3" x1="380" y1="1500" x2="380" y2="1780"/>
</svg>